<svg width="32" height="32" viewBox="0 0 32 32" fill="none" xmlns="http://www.w3.org/2000/svg">
<rect width="32" height="32" rx="4" fill="#FFFDFA"/>
<path d="M16.947 16.55H11.739L10.661 19H9.21897L13.657 9.2H15.043L19.495 19H18.025L16.947 16.55ZM16.457 15.43L14.343 10.628L12.229 15.43H16.457ZM20.1309 11.58H21.4749V19H20.1309V11.58ZM20.8029 10.152C20.5415 10.152 20.3222 10.068 20.1449 9.9C19.9769 9.732 19.8929 9.52667 19.8929 9.284C19.8929 9.04133 19.9769 8.836 20.1449 8.668C20.3222 8.49067 20.5415 8.402 20.8029 8.402C21.0642 8.402 21.2789 8.486 21.4469 8.654C21.6242 8.81267 21.7129 9.01333 21.7129 9.256C21.7129 9.508 21.6242 9.72267 21.4469 9.9C21.2789 10.068 21.0642 10.152 20.8029 10.152Z" fill="#7C3AED"/>
<path d="M10.236 24.032C10.0253 24.032 9.82133 24 9.624 23.936C9.42933 23.8693 9.276 23.784 9.164 23.68L9.312 23.368C9.41867 23.464 9.55467 23.5427 9.72 23.604C9.888 23.6627 10.06 23.692 10.236 23.692C10.468 23.692 10.6413 23.6533 10.756 23.576C10.8707 23.496 10.928 23.3907 10.928 23.26C10.928 23.164 10.896 23.0867 10.832 23.028C10.7707 22.9667 10.6933 22.92 10.6 22.888C10.5093 22.856 10.38 22.82 10.212 22.78C10.0013 22.7293 9.83067 22.6787 9.7 22.628C9.572 22.5773 9.46133 22.5 9.368 22.396C9.27733 22.2893 9.232 22.1467 9.232 21.968C9.232 21.8187 9.27067 21.684 9.348 21.564C9.428 21.444 9.548 21.348 9.708 21.276C9.868 21.204 10.0667 21.168 10.304 21.168C10.4693 21.168 10.632 21.1893 10.792 21.232C10.952 21.2747 11.0893 21.336 11.204 21.416L11.072 21.736C10.9547 21.6613 10.8293 21.6053 10.696 21.568C10.5627 21.528 10.432 21.508 10.304 21.508C10.0773 21.508 9.90667 21.5493 9.792 21.632C9.68 21.7147 9.624 21.8213 9.624 21.952C9.624 22.048 9.656 22.1267 9.72 22.188C9.784 22.2467 9.86267 22.2933 9.956 22.328C10.052 22.36 10.1813 22.3947 10.344 22.432C10.5547 22.4827 10.724 22.5333 10.852 22.584C10.98 22.6347 11.0893 22.712 11.18 22.816C11.2733 22.92 11.32 23.06 11.32 23.236C11.32 23.3827 11.28 23.5173 11.2 23.64C11.12 23.76 10.9987 23.856 10.836 23.928C10.6733 23.9973 10.4733 24.032 10.236 24.032ZM13.4044 24.032C13.031 24.032 12.7404 23.9253 12.5324 23.712C12.3244 23.4987 12.2204 23.192 12.2204 22.792V21.2H12.6204V22.776C12.6204 23.376 12.883 23.676 13.4084 23.676C13.6644 23.676 13.8604 23.6027 13.9964 23.456C14.1324 23.3067 14.2004 23.08 14.2004 22.776V21.2H14.5884V22.792C14.5884 23.1947 14.4844 23.5027 14.2764 23.716C14.0684 23.9267 13.7777 24.032 13.4044 24.032ZM15.7484 21.2H16.1484V24H15.7484V21.2ZM17.8827 21.548H16.9227V21.2H19.2387V21.548H18.2787V24H17.8827V21.548ZM22.0464 23.652V24H20.0144V21.2H21.9904V21.548H20.4144V22.408H21.8184V22.748H20.4144V23.652H22.0464Z" fill="#0F172A"/>
</svg>
