<svg width="398" height="69" viewBox="0 0 398 69" fill="none" xmlns="http://www.w3.org/2000/svg">
<path d="M53.896 51.2H18.184L10.792 68H0.904L31.336 0.799995H40.84L71.368 68H61.288L53.896 51.2ZM50.536 43.52L36.04 10.592L21.544 43.52H50.536ZM79.9525 0.799995H89.5525V68H79.9525V0.799995Z" fill="#7C3AED"/>
<path d="M152.157 68.768C147.101 68.768 142.205 68 137.469 66.464C132.797 64.864 129.117 62.816 126.429 60.32L129.981 52.832C132.541 55.136 135.805 57.024 139.773 58.496C143.805 59.904 147.933 60.608 152.157 60.608C157.725 60.608 161.885 59.68 164.637 57.824C167.389 55.904 168.765 53.376 168.765 50.24C168.765 47.936 167.997 46.08 166.461 44.672C164.989 43.2 163.133 42.08 160.893 41.312C158.717 40.544 155.613 39.68 151.581 38.72C146.525 37.504 142.429 36.288 139.293 35.072C136.221 33.856 133.565 32 131.325 29.504C129.149 26.944 128.061 23.52 128.061 19.232C128.061 15.648 128.989 12.416 130.845 9.536C132.765 6.656 135.645 4.352 139.485 2.62399C143.325 0.895998 148.093 0.0319996 153.789 0.0319996C157.757 0.0319996 161.661 0.543999 165.501 1.568C169.341 2.592 172.637 4.064 175.389 5.984L172.221 13.664C169.405 11.872 166.397 10.528 163.197 9.632C159.997 8.672 156.861 8.192 153.789 8.192C148.349 8.192 144.253 9.184 141.501 11.168C138.813 13.152 137.469 15.712 137.469 18.848C137.469 21.152 138.237 23.04 139.773 24.512C141.309 25.92 143.197 27.04 145.437 27.872C147.741 28.64 150.845 29.472 154.749 30.368C159.805 31.584 163.869 32.8 166.941 34.016C170.013 35.232 172.637 37.088 174.813 39.584C177.053 42.08 178.173 45.44 178.173 49.664C178.173 53.184 177.213 56.416 175.293 59.36C173.373 62.24 170.461 64.544 166.557 66.272C162.653 67.936 157.853 68.768 152.157 68.768ZM218.598 68.768C209.638 68.768 202.662 66.208 197.67 61.088C192.678 55.968 190.182 48.608 190.182 39.008V0.799995H199.782V38.624C199.782 53.024 206.086 60.224 218.694 60.224C224.838 60.224 229.542 58.464 232.806 54.944C236.07 51.36 237.702 45.92 237.702 38.624V0.799995H247.014V39.008C247.014 48.672 244.518 56.064 239.526 61.184C234.534 66.24 227.558 68.768 218.598 68.768ZM265.255 0.799995H274.855V68H265.255V0.799995ZM306.878 9.152H283.838V0.799995H339.422V9.152H316.382V68H306.878V9.152ZM397.206 59.648V68H348.438V0.799995H395.862V9.152H358.038V29.792H391.734V37.952H358.038V59.648H397.206Z" fill="#0F172A"/>
</svg>
